HIERARCHY
ROOT joint_Root
{
  OFFSET 0 0 0
  CHANNELS 6 Xposition Yposition Zposition Zrotation Xrotation Yrotation
  JOINT Hips
  {
    OFFSET 0 93.9241 -3
    CHANNELS 6 Xposition Yposition Zposition Zrotation Xrotation Yrotation
    JOINT Spine
    {
      OFFSET 15.7357 0 0
      CHANNELS 6 Xposition Yposition Zposition Zrotation Xrotation Yrotation
      JOINT Chest
      {
        OFFSET 8.98455 -0.406207 0
        CHANNELS 6 Xposition Yposition Zposition Zrotation Xrotation Yrotation
        JOINT Neck
        {
          OFFSET 16.3773 0 0
          CHANNELS 6 Xposition Yposition Zposition Zrotation Xrotation Yrotation
          JOINT Head
          {
            OFFSET 6.45672 0 0
            CHANNELS 6 Xposition Yposition Zposition Zrotation Xrotation Yrotation
            End Site
            {
              OFFSET 0 0 0
            }
          }
        }
        JOINT Shoulder_L
        {
          OFFSET 12.9942 -0.242716 4.98039
          CHANNELS 6 Xposition Yposition Zposition Zrotation Xrotation Yrotation
          JOINT UpperArm_L
          {
            OFFSET 5.34809 0 0
            CHANNELS 6 Xposition Yposition Zposition Zrotation Xrotation Yrotation
            JOINT LowerArm_L
            {
              OFFSET 24.3286 1.87007e-05 0
              CHANNELS 6 Xposition Yposition Zposition Zrotation Xrotation Yrotation
              JOINT Hand_L
              {
                OFFSET 22.2916 0 0
                CHANNELS 6 Xposition Yposition Zposition Zrotation Xrotation Yrotation
                End Site
                {
                  OFFSET 0 0 0
                }
              }
            }
          }
        }
        JOINT Shoulder_R
        {
          OFFSET 12.9945 -0.242716 -4.98039
          CHANNELS 6 Xposition Yposition Zposition Zrotation Xrotation Yrotation
          JOINT UpperArm_R
          {
            OFFSET -5.34813 0 0
            CHANNELS 6 Xposition Yposition Zposition Zrotation Xrotation Yrotation
            JOINT LowerArm_R
            {
              OFFSET -24.3289 0.000322201 0
              CHANNELS 6 Xposition Yposition Zposition Zrotation Xrotation Yrotation
              JOINT Hand_R
              {
                OFFSET -22.2915 -0.000108084 0
                CHANNELS 6 Xposition Yposition Zposition Zrotation Xrotation Yrotation
                End Site
                {
                  OFFSET 0 0 0
                }
              }
            }
          }
        }
      }
    }
    JOINT UpperLeg_L
    {
      OFFSET -2.19248 -6.46944 0
      CHANNELS 6 Xposition Yposition Zposition Zrotation Xrotation Yrotation
      JOINT LowerLeg_L
      {
        OFFSET 39.0811 0 -1.23785e-05
        CHANNELS 6 Xposition Yposition Zposition Zrotation Xrotation Yrotation
        JOINT Foot_L
        {
          OFFSET 40.9854 0 -1.26872e-05
          CHANNELS 6 Xposition Yposition Zposition Zrotation Xrotation Yrotation
          JOINT Toes_L
          {
            OFFSET 11.7543 0 0
            CHANNELS 6 Xposition Yposition Zposition Zrotation Xrotation Yrotation
            End Site
            {
              OFFSET 0 0 0
            }
          }
        }
      }
    }
    JOINT UpperLeg_R
    {
      OFFSET -2.19251 6.46944 0
      CHANNELS 6 Xposition Yposition Zposition Zrotation Xrotation Yrotation
      JOINT LowerLeg_R
      {
        OFFSET -39.0811 -0.00228153 -0.0401928
        CHANNELS 6 Xposition Yposition Zposition Zrotation Xrotation Yrotation
        JOINT Foot_R
        {
          OFFSET -40.9854 0 0
          CHANNELS 6 Xposition Yposition Zposition Zrotation Xrotation Yrotation
          JOINT Toes_R
          {
            OFFSET -11.7543 0 0
            CHANNELS 6 Xposition Yposition Zposition Zrotation Xrotation Yrotation
            End Site
            {
              OFFSET 0 0 0
            }
          }
        }
      }
    }
  }
}
MOTION
Frames:	7
Frame Time:	0.0333333
0 0 0 0 0 -0 -0.62207 92.1235 1.46939 90.7742 -7.53714 4.55444 15.7357 5.1072e-06 -5.51765e-07 94.9875 85.5041 -95.2486 8.98455 -0.406207 -4.3199e-07 1.19374 0.796378 -0.530013 16.3773 -1.3905e-06 -6.99897e-07 4.52873 -13.4927 7.6035 6.45672 -1.25837e-06 -1.02172e-07 24.2029 -18.3975 14.3186 12.9942 -0.242716 4.98039 -90.1793 0.959361 -94.4112 5.34809 -7.22636e-06 -6.2814e-07 -76.6109 -7.4451 4.56944 24.3286 1.87007e-05 4.90208e-06 1.33957 4.91639 -15.2616 22.2916 -9.88446e-07 4.63217e-06 9.96473 5.28385 0.521072 12.9945 -0.242716 -4.98039 88.8338 7.99642 -96.6742 -5.34813 -1.25947e-06 -3.79883e-06 -63.5549 -5.16044 8.65767 -24.3289 0.000322201 -8.65921e-06 32.1637 -11.2416 -107.223 -22.2915 -0.000108084 -4.47941e-06 71.4319 5.68181 -20.72 -2.19248 -6.46944 -1.22534e-07 175.44 -7.33592 -6.53608 39.0811 -6.73843e-06 -1.23785e-05 0.131355 -0.265483 22.5622 40.9854 -6.48686e-06 -1.26872e-05 3.98732 -5.60378 -62.4513 11.7543 -2.30145e-07 3.05095e-06 0.0820588 -0.0924264 -17.4782 -2.19251 6.46944 -1.45247e-06 -178.812 13.4381 -179.489 -39.0811 -0.00228153 -0.0401928 0.0172912 0.0003208 20.3291 -40.9854 7.72618e-06 5.99936e-06 -0.502627 -14.3037 -67.6801 -11.7543 -5.6619e-06 -5.58687e-06 -0.0940637 0.0575965 -16.5736 
0 0 0 0 0 -0 -0.600081 92.1254 1.44033 90.7645 -7.47367 4.5371 15.7357 5.1072e-06 -5.51765e-07 95.2284 85.5092 -95.4986 8.98455 -0.406207 -4.3199e-07 1.18031 0.833658 -0.548495 16.3773 -1.3905e-06 -6.99897e-07 4.49879 -13.5189 7.64012 6.45672 -1.25837e-06 -1.02172e-07 24.128 -18.3794 14.3351 12.9942 -0.242716 4.98039 -90.1767 0.943863 -94.3928 5.34809 -7.22636e-06 -6.2814e-07 -76.611 -7.55859 4.54853 24.3286 1.87007e-05 4.90208e-06 1.35528 4.97659 -15.2545 22.2916 -9.88446e-07 4.63217e-06 9.93847 5.28614 0.457573 12.9945 -0.242716 -4.98039 88.8277 8.02209 -96.6575 -5.34813 -1.25947e-06 -3.79883e-06 -63.5829 -5.51788 8.65075 -24.3289 0.000322201 -8.65921e-06 27.5575 -9.67658 -107.854 -22.2915 -0.000108084 -4.47941e-06 71.4273 5.67949 -19.4054 -2.19248 -6.46944 -1.22534e-07 175.424 -7.31529 -6.57373 39.0811 -6.73843e-06 -1.23785e-05 0.131957 -0.267448 22.5444 40.9854 -6.48686e-06 -1.26872e-05 4.01589 -5.59032 -62.4124 11.7543 -2.30145e-07 3.05095e-06 0.0810734 -0.0912947 -17.4673 -2.19251 6.46944 -1.45247e-06 -178.797 13.4606 -179.542 -39.0811 -0.00228153 -0.0401928 0.0221222 -0.00136746 20.3479 -40.9854 7.72618e-06 5.99936e-06 -0.497805 -14.2996 -67.662 -11.7543 -5.6619e-06 -5.58687e-06 -0.0858704 0.0525309 -16.5736 
0 0 0 0 0 -0 -0.584878 92.1259 1.41286 90.7416 -7.4331 4.52784 15.7357 5.1072e-06 -5.51765e-07 95.1454 85.5106 -95.4084 8.98455 -0.406207 -4.3199e-07 1.17867 0.820018 -0.533854 16.3773 -1.3905e-06 -6.99897e-07 4.44669 -13.4875 7.64639 6.45672 -1.25837e-06 -1.02172e-07 24.0698 -18.3326 14.3134 12.9942 -0.242716 4.98039 -90.1848 0.98026 -94.3273 5.34809 -7.22636e-06 -6.2814e-07 -76.5871 -7.65011 4.61629 24.3286 1.87007e-05 4.90208e-06 1.39375 5.06971 -15.3937 22.2916 -9.88446e-07 4.63217e-06 9.9265 5.28318 0.539231 12.9945 -0.242716 -4.98039 88.8403 7.9682 -96.6922 -5.34813 -1.25947e-06 -3.79883e-06 -63.6508 -5.87156 8.53748 -24.3289 0.000322201 -8.65921e-06 23.0003 -8.02664 -108.208 -22.2915 -0.000108084 -4.47941e-06 71.6395 5.67549 -18.3772 -2.19248 -6.46944 -1.22534e-07 175.429 -7.27927 -6.59934 39.0811 -6.73843e-06 -1.23785e-05 0.132739 -0.269183 22.5523 40.9854 -6.48686e-06 -1.26872e-05 4.03596 -5.56884 -62.3997 11.7543 -2.30145e-07 3.05095e-06 0.0794513 -0.0894565 -17.4494 -2.19251 6.46944 -1.45247e-06 -178.778 13.4664 -179.561 -39.0811 -0.00228153 -0.0401928 0.0187551 -0.000536692 20.3427 -40.9854 7.72618e-06 5.99936e-06 -0.508194 -14.3435 -67.6449 -11.7543 -5.6619e-06 -5.58687e-06 -0.0895464 0.054707 -16.5737 
0 0 0 0 0 -0 -0.566211 92.1262 1.39893 90.7412 -7.38049 4.54191 15.7357 5.1072e-06 -5.51765e-07 95.2846 85.5122 -95.5484 8.98455 -0.406207 -4.3199e-07 1.17361 0.841469 -0.535666 16.3773 -1.3905e-06 -6.99897e-07 4.41543 -13.5025 7.63416 6.45672 -1.25837e-06 -1.02172e-07 24.055 -18.2959 14.3496 12.9942 -0.242716 4.98039 -90.1834 0.975065 -94.3553 5.34809 -7.22636e-06 -6.2814e-07 -76.5941 -7.61621 4.62084 24.3286 1.87007e-05 4.90208e-06 1.3652 4.98913 -15.3239 22.2916 -9.88446e-07 4.63217e-06 9.90867 5.28533 0.479731 12.9945 -0.242716 -4.98039 88.8422 7.96954 -96.7073 -5.34813 -1.25947e-06 -3.79883e-06 -63.6681 -6.40606 8.48061 -24.3289 0.000322201 -8.65921e-06 19.3445 -6.67218 -108.312 -22.2915 -0.000108084 -4.47941e-06 71.9741 5.67009 -17.4021 -2.19248 -6.46944 -1.22534e-07 175.421 -7.26077 -6.59482 39.0811 -6.73843e-06 -1.23785e-05 0.132778 -0.269249 22.5459 40.9854 -6.48686e-06 -1.26872e-05 4.05279 -5.53666 -62.3823 11.7543 -2.30145e-07 3.05095e-06 0.076087 -0.0856032 -17.4121 -2.19251 6.46944 -1.45247e-06 -178.791 13.5082 -179.562 -39.0811 -0.00228153 -0.0401928 0.0201001 -0.00496123 20.3561 -40.9854 7.72618e-06 5.99936e-06 -0.505059 -14.3081 -67.6399 -11.7543 -5.6619e-06 -5.58687e-06 -0.0857268 0.0523858 -16.5736 
0 0 0 0 0 -0 -0.552357 92.1268 1.38763 90.7334 -7.34215 4.55371 15.7357 5.1072e-06 -5.51765e-07 95.4223 85.5114 -95.6801 8.98455 -0.406207 -4.3199e-07 1.1732 0.862764 -0.524069 16.3773 -1.3905e-06 -6.99897e-07 4.38676 -13.502 7.62883 6.45672 -1.25837e-06 -1.02172e-07 24.0025 -18.3406 14.3321 12.9942 -0.242716 4.98039 -90.1837 0.975516 -94.3335 5.34809 -7.22636e-06 -6.2814e-07 -76.5963 -7.56878 4.61177 24.3286 1.87007e-05 4.90208e-06 1.36091 5.00413 -15.2348 22.2916 -9.88446e-07 4.63217e-06 9.8535 5.28584 0.465858 12.9945 -0.242716 -4.98039 88.8419 7.99261 -96.7277 -5.34813 -1.25947e-06 -3.79883e-06 -63.6532 -6.93601 8.46778 -24.3289 0.000322201 -8.65921e-06 16.3301 -5.5997 -108.42 -22.2915 -0.000108084 -4.47941e-06 71.8009 5.66194 -16.287 -2.19248 -6.46944 -1.22534e-07 175.42 -7.23747 -6.58595 39.0811 -6.73843e-06 -1.23785e-05 0.13264 -0.269218 22.541 40.9854 -6.48686e-06 -1.26872e-05 4.06581 -5.52243 -62.3721 11.7543 -2.30145e-07 3.05095e-06 0.0844416 -0.0951607 -17.5046 -2.19251 6.46944 -1.45247e-06 -178.812 13.6193 -179.551 -39.0811 -0.00228153 -0.0401928 0.0179645 -0.00345906 20.355 -40.9854 7.72618e-06 5.99936e-06 -0.508993 -14.2735 -67.6338 -11.7543 -5.6619e-06 -5.58687e-06 -0.0901774 0.0550152 -16.5738 
0 0 0 0 0 -0 -0.547414 92.128 1.38552 90.7339 -7.32241 4.58137 15.7357 5.1072e-06 -5.51765e-07 95.6657 85.5141 -95.9143 8.98455 -0.406207 -4.3199e-07 1.164 0.899654 -0.505897 16.3773 -1.3905e-06 -6.99897e-07 4.38841 -13.4973 7.60908 6.45672 -1.25837e-06 -1.02172e-07 23.9624 -18.3859 14.3372 12.9942 -0.242716 4.98039 -90.185 0.983666 -94.3589 5.34809 -7.22636e-06 -6.2814e-07 -76.5971 -7.62564 4.64921 24.3286 1.87007e-05 4.90208e-06 1.33353 4.93097 -15.1537 22.2916 -9.88446e-07 4.63217e-06 9.88092 5.28679 0.439638 12.9945 -0.242716 -4.98039 88.8412 7.99887 -96.7299 -5.34813 -1.25947e-06 -3.79883e-06 -63.66 -7.39924 8.45247 -24.3289 0.000322201 -8.65921e-06 12.9633 -4.44444 -108.605 -22.2915 -0.000108084 -4.47941e-06 71.5076 5.65551 -15.5678 -2.19248 -6.46944 -1.22534e-07 175.417 -7.29077 -6.55485 39.0811 -6.73843e-06 -1.23785e-05 0.132941 -0.270327 22.5241 40.9854 -6.48686e-06 -1.26872e-05 4.0887 -5.46462 -62.3626 11.7543 -2.30145e-07 3.05095e-06 0.0790428 -0.0889749 -17.4448 -2.19251 6.46944 -1.45247e-06 -178.827 13.6624 -179.52 -39.0811 -0.00228153 -0.0401928 0.0198207 -0.00466789 20.3494 -40.9854 7.72618e-06 5.99936e-06 -0.50596 -14.2467 -67.6297 -11.7543 -5.6619e-06 -5.58687e-06 -0.0863402 0.0526737 -16.5737 
0 0 0 0 0 -0 -0.538907 92.1288 1.36756 90.7214 -7.32107 4.55787 15.7357 5.1072e-06 -5.51765e-07 95.8057 85.5233 -96.043 8.98455 -0.406207 -4.3199e-07 1.14348 0.918972 -0.483341 16.3773 -1.3905e-06 -6.99897e-07 4.35477 -13.5184 7.57045 6.45672 -1.25837e-06 -1.02172e-07 23.931 -18.3982 14.3568 12.9942 -0.242716 4.98039 -90.1865 0.994222 -94.378 5.34809 -7.22636e-06 -6.2814e-07 -76.5839 -7.67031 4.7257 24.3286 1.87007e-05 4.90208e-06 1.3518 4.98042 -15.2069 22.2916 -9.88446e-07 4.63217e-06 9.90499 5.28666 0.443332 12.9945 -0.242716 -4.98039 88.838 8.03162 -96.7397 -5.34813 -1.25947e-06 -3.79883e-06 -63.6421 -7.7609 8.41702 -24.3289 0.000322201 -8.65921e-06 10.3849 -3.57386 -108.786 -22.2915 -0.000108084 -4.47941e-06 71.3769 5.64565 -14.613 -2.19248 -6.46944 -1.22534e-07 175.418 -7.26245 -6.59217 39.0811 -6.73843e-06 -1.23785e-05 0.13317 -0.270839 22.5269 40.9854 -6.48686e-06 -1.26872e-05 4.09242 -5.48523 -62.3492 11.7543 -2.30145e-07 3.05095e-06 0.0799208 -0.089974 -17.4545 -2.19251 6.46944 -1.45247e-06 -178.806 13.6602 -179.57 -39.0811 -0.00228153 -0.0401928 0.0223251 -0.00518964 20.3627 -40.9854 7.72618e-06 5.99936e-06 -0.508518 -14.2662 -67.617 -11.7543 -5.6619e-06 -5.58687e-06 -0.0886874 0.0540536 -16.5736 
